<?xml version="1.0" encoding="UTF-8" standalone="no"?>
<svg
   viewBox="0 0 245.98441 73.144045"
   width="245.98442"
   height="73.144043"
   version="1.1"
   id="svg182"
   sodipodi:docname="e-up_pcb.svg"
   inkscape:version="1.2.1 (9c6d41e4, 2022-07-14)"
   xmlns:inkscape="http://www.inkscape.org/namespaces/inkscape"
   xmlns:sodipodi="http://sodipodi.sourceforge.net/DTD/sodipodi-0.dtd"
   xmlns="http://www.w3.org/2000/svg"
   xmlns:svg="http://www.w3.org/2000/svg">
  <sodipodi:namedview
     id="namedview184"
     pagecolor="#ffffff"
     bordercolor="#000000"
     borderopacity="0.25"
     inkscape:showpageshadow="2"
     inkscape:pageopacity="0.0"
     inkscape:pagecheckerboard="0"
     inkscape:deskcolor="#d1d1d1"
     showgrid="false"
     inkscape:zoom="4.3214119"
     inkscape:cx="138.4964"
     inkscape:cy="2.7768702"
     inkscape:window-width="1680"
     inkscape:window-height="820"
     inkscape:window-x="0"
     inkscape:window-y="621"
     inkscape:window-maximized="0"
     inkscape:current-layer="g180" />
  <defs
     id="defs146" />
  <g
     inkscape:groupmode="layer"
     inkscape:label="0"
     id="g180"
     transform="translate(-253.24191,-410.79938)">
    <path
       id="path170"
       style="fill:#000000;fill-opacity:1;stroke:none"
       d="M 264.26339 423.32282 A 111.49606 111.49606 0 0 0 275.6716 472.45758 L 475.84543 472.45758 A 111.49606 111.49606 0 0 0 487.25558 423.32282 L 264.26339 423.32282 z M 480.21457 424.82282 C 481.11326 424.82282 482.0257 425.11783 482.74191 425.75446 C 483.45811 426.39108 483.92746 427.38884 483.92746 428.53766 C 483.92746 429.68648 483.45811 430.68228 482.74191 431.31891 C 482.0257 431.95554 481.11326 432.25055 480.21457 432.25055 C 479.31589 432.25055 478.40147 431.95554 477.68527 431.31891 C 477.14473 430.83844 476.74542 430.15313 476.58175 429.35211 L 378.58957 429.35211 L 372.96652 444.40094 C 373.19359 444.52677 373.41217 444.67164 373.613 444.85016 C 374.32921 445.48679 374.79855 446.48461 374.79855 447.63336 C 374.79855 448.78218 374.32921 449.77805 373.613 450.41461 C 372.8968 451.05124 371.98434 451.34625 371.08566 451.34625 C 370.18697 451.34625 369.27257 451.05124 368.55636 450.41461 C 367.84015 449.77805 367.37082 448.78218 367.37082 447.63336 C 367.37082 446.48461 367.84015 445.48679 368.55636 444.85016 C 369.2129 444.26657 370.0362 443.98146 370.86105 443.9361 L 376.84933 427.91071 L 377.84933 427.21735 L 476.73996 427.21735 C 476.94521 426.63672 477.26455 426.12843 477.68527 425.75446 C 478.40147 425.11783 479.31589 424.82282 480.21457 424.82282 z M 479.47628 434.57282 C 480.37497 434.57282 481.28742 434.86783 482.00363 435.50446 C 482.71983 436.14108 483.18918 437.13884 483.18918 438.28766 C 483.18918 439.43648 482.71983 440.43228 482.00363 441.06891 C 481.28742 441.70554 480.37497 442.00055 479.47628 442.00055 C 478.57764 442.00055 477.66319 441.70554 476.94699 441.06891 C 476.45952 440.6356 476.09067 440.03366 475.90207 439.33258 L 410.15011 439.33258 L 407.99582 444.61383 C 408.10555 444.69098 408.21966 444.7592 408.32199 444.85016 C 409.03819 445.48679 409.50753 446.48459 409.50753 447.63336 C 409.50753 448.78218 409.03819 449.77803 408.32199 450.41461 C 407.60578 451.05124 406.69333 451.34625 405.79464 451.34625 C 404.896 451.34625 403.98156 451.05124 403.26535 450.41461 C 402.54915 449.77803 402.08175 448.78218 402.08175 447.63336 C 402.08175 446.48459 402.54915 445.48679 403.26535 444.85016 C 403.98156 444.21353 404.896 443.91852 405.79464 443.91852 C 405.85259 443.91852 405.91047 443.92973 405.96847 443.93219 L 408.44308 437.85993 L 409.43332 437.19586 L 475.91574 437.19586 C 476.10807 436.51388 476.47015 435.92831 476.94699 435.50446 C 477.66319 434.86783 478.57764 434.57282 479.47628 434.57282 z M 273.74386 443.91852 C 274.64255 443.91852 275.55501 444.21353 276.27121 444.85016 C 276.62725 445.16664 276.92193 445.57241 277.12863 446.04157 L 344.56027 446.04157 C 344.76696 445.5724 345.06165 445.16664 345.41769 444.85016 C 346.13389 444.21353 347.04643 443.91852 347.94503 443.91852 C 348.84372 443.91852 349.75617 444.21353 350.47238 444.85016 C 351.18858 445.48679 351.65793 446.48463 351.65793 447.63336 C 351.65793 448.78218 351.18858 449.77807 350.47238 450.41461 C 349.75617 451.05124 348.84372 451.34625 347.94503 451.34625 C 347.04643 451.34625 346.13389 451.05124 345.41769 450.41461 C 345.0857 450.11951 344.81479 449.74002 344.61105 449.3111 L 277.07785 449.3111 C 276.87411 449.73997 276.60317 450.11954 276.27121 450.41461 C 275.55501 451.05124 274.64255 451.34625 273.74386 451.34625 C 272.84517 451.34625 271.93078 451.05124 271.21457 450.41461 C 270.49837 449.77807 270.03097 448.78218 270.03097 447.63336 C 270.03097 446.48463 270.49837 445.48679 271.21457 444.85016 C 271.93078 444.21353 272.84517 443.91852 273.74386 443.91852 z M 477.6755 444.32282 C 478.57419 444.32282 479.48859 444.61783 480.2048 445.25446 C 480.921 445.89108 481.38839 446.88884 481.38839 448.03766 C 481.38839 449.18648 480.921 450.18228 480.2048 450.81891 C 479.48859 451.45554 478.57419 451.75055 477.6755 451.75055 C 476.77681 451.75055 475.86436 451.45554 475.14816 450.81891 C 474.65514 450.38067 474.29168 449.76468 474.10519 449.05329 L 419.41769 449.05329 L 415.41574 457.58844 L 414.44894 458.20368 L 403.42746 458.20368 C 403.22599 458.82398 402.8958 459.36658 402.45285 459.76032 C 401.73665 460.39694 400.82419 460.69 399.9255 460.69 C 399.02681 460.69 398.11242 460.39694 397.39621 459.76032 C 396.68001 459.12369 396.21066 458.12593 396.21066 456.97711 C 396.21066 455.82832 396.68001 454.83249 397.39621 454.19586 C 398.11242 453.55926 399.02681 453.26422 399.9255 453.26422 C 400.82419 453.26422 401.73665 453.55926 402.45285 454.19586 C 402.97099 454.65644 403.35353 455.30847 403.52902 456.06696 L 413.77121 456.06696 L 417.77121 447.5318 L 418.738 446.91852 L 474.13839 446.91852 C 474.33335 446.25178 474.67963 445.67092 475.14816 445.25446 C 475.86436 444.61783 476.77681 444.32282 477.6755 444.32282 z M 365.53878 453.26422 C 366.43747 453.26422 367.35187 453.55931 368.06808 454.19586 C 368.78429 454.83249 369.25363 455.82837 369.25363 456.97711 C 369.25363 458.12593 368.78429 459.12369 368.06808 459.76032 C 367.35187 460.39694 366.43747 460.69 365.53878 460.69 C 365.47763 460.69 365.41647 460.67712 365.35519 460.67438 L 361.238 466.84821 L 359.87863 467.57477 L 283.33371 467.57477 C 283.12837 468.02251 282.84679 468.41427 282.50363 468.7193 C 281.78742 469.35593 280.87497 469.65094 279.97628 469.65094 C 279.07767 469.65094 278.16319 469.35593 277.44699 468.7193 C 276.73078 468.08267 276.26144 467.08491 276.26144 465.9361 C 276.26144 464.78728 276.73078 463.79147 277.44699 463.15485 C 278.16319 462.51822 279.07767 462.22321 279.97628 462.22321 C 280.87497 462.22321 281.78742 462.51822 282.50363 463.15485 C 282.84949 463.46228 283.1339 463.85545 283.33957 464.30719 L 359.00363 464.30719 L 362.46652 459.11383 C 362.0723 458.52539 361.82589 457.79353 361.82589 456.97711 C 361.82589 455.82837 362.29523 454.83249 363.01144 454.19586 C 363.72764 453.55931 364.64017 453.26422 365.53878 453.26422 z M 377.00168 453.26422 C 377.90032 453.26422 378.81281 453.55929 379.52902 454.19586 C 380.24522 454.83249 380.71457 455.82835 380.71457 456.97711 C 380.71457 457.98941 380.33806 458.86855 379.76144 459.5025 L 383.89816 466.64704 L 466.31222 466.64704 C 466.48544 465.87926 466.8715 465.21913 467.39425 464.75446 C 468.11046 464.11783 469.02292 463.82282 469.9216 463.82282 C 470.82029 463.82282 471.73474 464.11783 472.45089 464.75446 C 473.1671 465.39108 473.63449 466.38884 473.63449 467.53766 C 473.63449 468.68648 473.1671 469.68228 472.45089 470.31891 C 471.73474 470.95554 470.82029 471.25055 469.9216 471.25055 C 469.02292 471.25055 468.11046 470.95554 467.39425 470.31891 C 466.95616 469.92949 466.62795 469.39478 466.4255 468.78375 L 383.28293 468.78375 L 382.3591 468.25055 L 377.91378 460.57282 C 377.61299 460.64273 377.3076 460.69 377.00168 460.69 C 376.103 460.69 375.18858 460.39694 374.47238 459.76032 C 373.75617 459.12369 373.28683 458.12593 373.28683 456.97711 C 373.28683 455.82835 373.75617 454.83249 374.47238 454.19586 C 375.18858 453.55929 376.103 453.26422 377.00168 453.26422 z M 388.46261 453.26422 C 389.3613 453.26422 390.2757 453.55927 390.99191 454.19586 C 391.70811 454.83249 392.1755 455.82833 392.1755 456.97711 C 392.1755 457.71024 391.97204 458.36888 391.64816 458.92438 L 394.63449 462.35797 L 422.35324 462.35797 L 424.9216 456.96149 L 425.88644 456.35407 L 471.238 456.35407 C 471.44555 455.82044 471.75428 455.35457 472.14816 455.00446 C 472.86436 454.36783 473.77681 454.07282 474.6755 454.07282 C 475.57419 454.07282 476.48859 454.36783 477.2048 455.00446 C 477.921 455.64108 478.38839 456.63884 478.38839 457.78766 C 478.38839 458.93648 477.921 459.93228 477.2048 460.56891 C 476.48859 461.20554 475.57419 461.50055 474.6755 461.50055 C 473.77681 461.50055 472.86436 461.20554 472.14816 460.56891 C 471.58318 460.06671 471.18146 459.33684 471.03293 458.48883 L 426.56027 458.48883 L 423.99191 463.88532 L 423.02707 464.49469 L 394.14816 464.49469 L 393.34152 464.1275 L 390.05246 460.3443 C 389.5464 460.56809 389.00404 460.69 388.46261 460.69 C 387.56392 460.69 386.65147 460.39694 385.93527 459.76032 C 385.21906 459.12369 384.74972 458.12593 384.74972 456.97711 C 384.74972 455.82833 385.21906 454.83249 385.93527 454.19586 C 386.65147 453.55927 387.56392 453.26422 388.46261 453.26422 z " />
    <text
       xml:space="preserve"
       style="font-weight:bold;font-size:90.6667px;font-family:Futura;-inkscape-font-specification:'Futura, Bold';fill:#000000;stroke:#000000;stroke-width:5.50299;stroke-linejoin:bevel"
       x="330.66187"
       y="419.82422"
       id="text412"><tspan
         sodipodi:role="line"
         id="tspan410"
         x="330.66187"
         y="419.82422"
         style="font-style:normal;font-variant:normal;font-weight:normal;font-stretch:normal;font-size:8px;font-family:sans-serif;-inkscape-font-specification:'sans-serif, Normal';font-variant-ligatures:normal;font-variant-caps:normal;font-variant-numeric:normal;font-variant-east-asian:normal;stroke:none">THIS SIDE FACES OUT</tspan></text>
  </g>
</svg>
