<?xml version="1.0" encoding="UTF-8" standalone="no"?>
<!-- Created with Inkscape (http://www.inkscape.org/) -->

<svg
   width="46.999996mm"
   height="46.999996mm"
   viewBox="0 0 46.999996 46.999996"
   version="1.1"
   id="svg5"
   xml:space="preserve"
   inkscape:version="1.2.1 (9c6d41e4, 2022-07-14)"
   sodipodi:docname="gps_mount_pin_layout.svg"
   inkscape:export-filename="gps_mount_pin_layout.svg"
   inkscape:export-xdpi="96"
   inkscape:export-ydpi="96"
   xmlns:inkscape="http://www.inkscape.org/namespaces/inkscape"
   xmlns:sodipodi="http://sodipodi.sourceforge.net/DTD/sodipodi-0.dtd"
   xmlns="http://www.w3.org/2000/svg"
   xmlns:svg="http://www.w3.org/2000/svg"><sodipodi:namedview
     id="namedview7"
     pagecolor="#ffffff"
     bordercolor="#000000"
     borderopacity="0.25"
     inkscape:showpageshadow="2"
     inkscape:pageopacity="0.0"
     inkscape:pagecheckerboard="0"
     inkscape:deskcolor="#d1d1d1"
     inkscape:document-units="mm"
     showgrid="false"
     inkscape:zoom="4.289628"
     inkscape:cx="62.59284"
     inkscape:cy="86.487686"
     inkscape:window-width="1663"
     inkscape:window-height="982"
     inkscape:window-x="7"
     inkscape:window-y="25"
     inkscape:window-maximized="0"
     inkscape:current-layer="g1809" /><defs
     id="defs2"><inkscape:path-effect
       effect="fillet_chamfer"
       id="path-effect1906"
       is_visible="true"
       lpeversion="1"
       nodesatellites_param="F,0,0,1,0,26.458333,0,7 @ F,0,0,1,0,26.458333,0,7 @ F,0,0,1,0,26.458333,0,7 @ F,0,0,1,0,26.458333,0,7"
       unit="px"
       method="auto"
       mode="F"
       radius="100"
       chamfer_steps="7"
       flexible="false"
       use_knot_distance="true"
       apply_no_radius="true"
       apply_with_radius="true"
       only_selected="false"
       hide_knots="false" /><inkscape:path-effect
       effect="fillet_chamfer"
       id="path-effect1852"
       is_visible="true"
       lpeversion="1"
       nodesatellites_param="F,1,0,1,0,26,0,1 @ F,1,0,1,0,26,0,1 @ F,1,0,1,0,26,0,1 @ F,1,0,1,0,26,0,1"
       unit="px"
       method="auto"
       mode="F"
       radius="26"
       chamfer_steps="1"
       flexible="true"
       use_knot_distance="true"
       apply_no_radius="true"
       apply_with_radius="true"
       only_selected="false"
       hide_knots="false" /></defs><g
     inkscape:label="Layer 1"
     inkscape:groupmode="layer"
     id="layer1"
     transform="translate(389.36864,435.93213)"><g
       id="g1850"
       transform="matrix(0.06139472,0,0,0.06139472,-365.46346,-409.1682)"><path
         id="path975"
         style="fill:none;stroke:#ff0000;stroke-width:2.25472;stroke-linejoin:bevel"
         d="M 375.0421,-53.163109 A 381.64166,381.64166 0 0 1 -5.9477608,328.478 381.64166,381.64166 0 0 1 -388.239,-51.859498 381.64166,381.64166 0 0 1 -8.5549778,-434.79976 381.64166,381.64166 0 0 1 375.03319,-55.770314 Z" /><g
         id="g1832"><path
           id="rect1445"
           d="m -131.17065,-11.33873 h 241.59127 a 26.458333,26.458333 45 0 1 26.45833,26.458333 V 94.731517 A 26.458333,26.458333 135 0 1 110.42062,121.18985 H -131.17065 A 26.458333,26.458333 45 0 1 -157.62898,94.731517 V 15.119603 a 26.458333,26.458333 135 0 1 26.45833,-26.458333 z"
           style="fill:none;stroke:#ff0000;stroke-width:0.975083;stroke-linejoin:bevel;stroke-dasharray:none;stroke-opacity:1" /><g
           id="g1809"><path
             id="path1447"
             style="fill:#ff0000;stroke-width:0.999349;stroke-linejoin:bevel"
             d="m -125.04135,51.597458 a 11,11 0 0 1 -11,11 11,11 0 0 1 -11,-11 11,11 0 0 1 11,-11 11,11 0 0 1 11,11 z" /><path
             id="path1447-6"
             style="fill:#ff0000;stroke-width:0.999349;stroke-linejoin:bevel"
             d="m -75.180542,51.597458 a 11,11 0 0 1 -11,11 11,11 0 0 1 -11,-11 11,11 0 0 1 11,-11 11,11 0 0 1 11,11 z" /><path
             id="path1447-0"
             style="fill:#ff0000;stroke-width:0.999349;stroke-linejoin:bevel"
             d="m -25.319729,51.597458 a 11,11 0 0 1 -11,11 11,11 0 0 1 -11,-11 11,11 0 0 1 11,-11 11,11 0 0 1 11,11 z" /><path
             id="path1447-3"
             style="fill:#ff0000;stroke-width:0.999349;stroke-linejoin:bevel"
             d="m 24.541081,51.597458 a 11,11 0 0 1 -11,11 11,11 0 0 1 -10.9999996,-11 11,11 0 0 1 10.9999996,-11 11,11 0 0 1 11,11 z" /><path
             id="path1447-9"
             style="fill:#ff0000;stroke-width:0.999349;stroke-linejoin:bevel"
             d="m 74.401894,51.597458 a 11,11 0 0 1 -11,11 11,11 0 0 1 -11,-11 11,11 0 0 1 11,-11 11,11 0 0 1 11,11 z" /><path
             id="path1447-4"
             style="fill:#ff0000;stroke-width:0.999349;stroke-linejoin:bevel"
             d="m 124.2627,51.597458 a 11,11 0 0 1 -11,11 11,11 0 0 1 -11,-11 11,11 0 0 1 11,-11 11,11 0 0 1 11,11 z" /><g
             aria-label="G"
             id="text2024"
             style="font-weight:900;font-size:17.6389px;font-family:'Apple SD Gothic Neo';-inkscape-font-specification:'Apple SD Gothic Neo, Heavy';stroke-linejoin:bevel"><path
               d="m -135.13294,37.349183 c 1.69333,0 3.36903,-0.388056 4.25097,-0.758473 v -5.820837 h -4.78014 v 2.169585 h 1.69334 v 1.852084 c -0.28223,0.105834 -0.77612,0.194028 -1.27001,0.194028 -2.06375,0 -2.54,-1.28764 -2.54,-3.492502 v -0.529167 c 0,-1.993196 0.67028,-3.298475 3.19264,-3.298475 1.48167,0 2.45181,0.3175 3.10445,0.546806 v -2.434168 c -0.65264,-0.335139 -1.92264,-0.652639 -3.56306,-0.652639 -3.28083,0 -6.15597,1.428751 -6.15597,5.92667 v 0.388056 c 0,4.356809 2.31069,5.909032 6.06778,5.909032 z"
               id="path1136" /></g><g
             aria-label="G"
             id="text2024-5"
             style="font-weight:900;font-size:17.6389px;font-family:'Apple SD Gothic Neo';-inkscape-font-specification:'Apple SD Gothic Neo, Heavy';stroke-linejoin:bevel"><path
               d="m -85.27214,37.349183 c 1.693334,0 3.36903,-0.388056 4.250975,-0.758473 v -5.820837 h -4.780142 v 2.169585 h 1.693334 v 1.852084 c -0.282222,0.105834 -0.776111,0.194028 -1.270001,0.194028 -2.063751,0 -2.540001,-1.28764 -2.540001,-3.492502 v -0.529167 c 0,-1.993196 0.670278,-3.298475 3.192641,-3.298475 1.481667,0 2.451807,0.3175 3.104446,0.546806 v -2.434168 c -0.652639,-0.335139 -1.92264,-0.652639 -3.563058,-0.652639 -3.280835,0 -6.155976,1.428751 -6.155976,5.92667 v 0.388056 c 0,4.356809 2.310696,5.909032 6.067782,5.909032 z"
               id="path1139" /></g><g
             aria-label="R"
             id="text2024-3"
             style="font-weight:900;font-size:17.6389px;font-family:'Apple SD Gothic Neo';-inkscape-font-specification:'Apple SD Gothic Neo, Heavy';stroke-linejoin:bevel"><path
               d="m -38.118896,30.849248 v -3.280836 h 1.199445 c 1.217084,0 1.693334,0.493889 1.693334,1.60514 0,1.111251 -0.458611,1.675696 -1.640418,1.675696 z m -3.280836,6.314726 h 3.316113 v -4.32153 h 1.234723 l 2.151946,4.32153 h 3.457225 l -2.645835,-5.097642 v -0.07056 c 1.234723,-0.529167 1.957918,-1.358195 1.957918,-2.980974 0,-2.557641 -1.499307,-3.704169 -4.49792,-3.704169 h -4.97417 z"
               id="path1142" /></g><g
             aria-label="5V"
             id="text2024-3-2"
             style="font-weight:900;font-size:17.6389px;font-family:'Apple SD Gothic Neo';-inkscape-font-specification:'Apple SD Gothic Neo, Heavy';stroke-linejoin:bevel"><path
               d="m 106.56875,37.455003 c 2.94569,0 4.70958,-1.710974 4.70958,-4.127503 0,-2.681113 -1.53458,-4.056947 -4.00403,-4.056947 -0.37041,0 -0.97014,0.08819 -1.23472,0.176389 l 0.14111,-2.028474 h 4.39209 v -2.398891 h -6.7557 l -0.45861,7.284866 c 0.58208,-0.3175 1.72861,-0.723194 2.41653,-0.723194 1.39347,0 2.15194,0.511528 2.15194,1.675695 0,1.146529 -0.89958,1.60514 -2.32833,1.60514 -0.82903,0 -1.39347,-0.229306 -2.09903,-0.564445 l -0.54681,2.398891 c 0.88195,0.440972 2.2225,0.758473 3.61598,0.758473 z"
               id="path1145" /><path
               d="m 116.11138,37.278613 h 3.42194 l 4.03931,-11.853341 h -3.03389 l -2.48708,8.008061 h -0.0882 l -2.50472,-8.008061 h -3.38667 z"
               id="path1147" /></g></g><g
           id="g1816"><path
             id="path1447-1"
             style="fill:#ff0000;stroke-width:0.999349;stroke-linejoin:bevel"
             d="m -99.745758,91.868637 a 11,11 0 0 1 -11.000002,11.000003 11,11 0 0 1 -11,-11.000003 11,11 0 0 1 11,-11 11,11 0 0 1 11.000002,11 z" /><path
             id="path1447-37"
             style="fill:#ff0000;stroke-width:0.999349;stroke-linejoin:bevel"
             d="m -50.350632,91.868637 a 11,11 0 0 1 -11,11.000003 11,11 0 0 1 -11,-11.000003 11,11 0 0 1 11,-11 11,11 0 0 1 11,11 z" /><path
             id="path1447-8"
             style="fill:#ff0000;stroke-width:0.999349;stroke-linejoin:bevel"
             d="m -0.95550537,91.868637 a 11,11 0 0 1 -10.99999963,11.000003 11,11 0 0 1 -11,-11.000003 11,11 0 0 1 11,-11 11,11 0 0 1 10.99999963,11 z" /><path
             id="path1447-83"
             style="fill:#ff0000;stroke-width:0.999349;stroke-linejoin:bevel"
             d="m 48.439621,91.868637 a 11,11 0 0 1 -11,11.000003 11,11 0 0 1 -11,-11.000003 11,11 0 0 1 11,-11 11,11 0 0 1 11,11 z" /><path
             id="path1447-81"
             style="fill:#ff0000;stroke-width:0.999349;stroke-linejoin:bevel"
             d="m 97.834747,91.868637 a 11,11 0 0 1 -11,11.000003 11,11 0 0 1 -11,-11.000003 11,11 0 0 1 11,-11 11,11 0 0 1 11,11 z" /><g
             aria-label="5V"
             id="text2024-3-2-8"
             style="font-weight:900;font-size:17.6389px;font-family:'Apple SD Gothic Neo';-inkscape-font-specification:'Apple SD Gothic Neo, Heavy';stroke-linejoin:bevel"><path
               d="m -68.044587,76.552163 c 2.945697,0 4.709587,-1.710974 4.709587,-4.127503 0,-2.681113 -1.534584,-4.056947 -4.004031,-4.056947 -0.370417,0 -0.970139,0.08819 -1.234723,0.176389 l 0.141112,-2.028474 h 4.392086 v -2.39889 h -6.755699 l -0.458612,7.284866 c 0.582084,-0.3175 1.728613,-0.723195 2.41653,-0.723195 1.393473,0 2.151946,0.511528 2.151946,1.675695 0,1.146529 -0.899584,1.60514 -2.328335,1.60514 -0.829029,0 -1.393473,-0.229305 -2.099029,-0.564444 l -0.546806,2.39889 c 0.881945,0.440973 2.222501,0.758473 3.615974,0.758473 z"
               id="path1155" /><path
               d="m -58.501959,76.375774 h 3.421947 l 4.039309,-11.853341 h -3.033891 l -2.487085,8.00806 h -0.08819 l -2.504724,-8.00806 h -3.386669 z"
               id="path1157" /></g><g
             aria-label="EN"
             id="text2024-3-2-8-5"
             style="font-weight:900;font-size:17.6389px;font-family:'Apple SD Gothic Neo';-inkscape-font-specification:'Apple SD Gothic Neo, Heavy';stroke-linejoin:bevel"><path
               d="m 27.173787,76.261112 h 8.3432 V 73.87986 h -5.062365 v -2.504724 h 3.827642 v -2.328335 h -3.827642 v -2.257779 h 4.903615 V 64.40777 h -8.18445 z"
               id="path1160" /><path
               d="m 37.421977,76.261112 h 2.822224 v -7.3907 h 0.07056 l 4.233337,7.3907 h 3.157363 V 64.40777 h -2.822224 v 6.632227 h -0.05292 L 41.002674,64.40777 h -3.580697 z"
               id="path1162" /></g><g
             aria-label="G"
             id="text2024-3-2-8-9"
             style="font-weight:900;font-size:17.6389px;font-family:'Apple SD Gothic Neo';-inkscape-font-specification:'Apple SD Gothic Neo, Heavy';stroke-linejoin:bevel"><path
               d="m -11.047102,76.44632 c 1.6933348,0 3.3690304,-0.388056 4.2509755,-0.758472 V 69.86701 h -4.7801425 v 2.169585 h 1.6933348 v 1.852085 c -0.2822228,0.105833 -0.7761118,0.194028 -1.2700008,0.194028 -2.063751,0 -2.540002,-1.28764 -2.540002,-3.492503 v -0.529167 c 0,-1.993196 0.670278,-3.298474 3.192641,-3.298474 1.481668,0 2.4518075,0.3175 3.1044468,0.546806 v -2.434169 c -0.6526393,-0.335139 -1.9226401,-0.652639 -3.5630578,-0.652639 -3.280836,0 -6.155976,1.428751 -6.155976,5.926671 v 0.388055 c 0,4.356809 2.310696,5.909032 6.067781,5.909032 z"
               id="path1165" /></g><g
             aria-label="R"
             id="text2024-3-2-8-3"
             style="font-weight:900;font-size:17.6389px;font-family:'Apple SD Gothic Neo';-inkscape-font-specification:'Apple SD Gothic Neo, Heavy';stroke-linejoin:bevel"><path
               d="M 85.03558,69.946385 V 66.66555 h 1.199445 c 1.217084,0 1.693334,0.493889 1.693334,1.60514 0,1.11125 -0.458611,1.675695 -1.640417,1.675695 z m -3.280836,6.314727 h 3.316113 v -4.321531 h 1.234724 l 2.151945,4.321531 h 3.457225 l -2.645835,-5.097643 v -0.07056 c 1.234723,-0.529167 1.957918,-1.358196 1.957918,-2.980974 0,-2.557641 -1.499307,-3.70417 -4.49792,-3.70417 h -4.97417 z"
               id="path1168" /></g></g></g></g></g></svg>
