<?xml version="1.0" encoding="UTF-8" standalone="no"?>
<!-- Created with Inkscape (http://www.inkscape.org/) -->

<svg
   width="46.999996mm"
   height="46.999996mm"
   viewBox="0 0 46.999996 46.999996"
   version="1.1"
   id="svg5"
   xml:space="preserve"
   inkscape:version="1.2.1 (9c6d41e4, 2022-07-14)"
   sodipodi:docname="gps_mount_pin_layout.svg"
   inkscape:export-filename="gps_mount_pin_layout.svg"
   inkscape:export-xdpi="96"
   inkscape:export-ydpi="96"
   xmlns:inkscape="http://www.inkscape.org/namespaces/inkscape"
   xmlns:sodipodi="http://sodipodi.sourceforge.net/DTD/sodipodi-0.dtd"
   xmlns="http://www.w3.org/2000/svg"
   xmlns:svg="http://www.w3.org/2000/svg"><sodipodi:namedview
     id="namedview7"
     pagecolor="#ffffff"
     bordercolor="#000000"
     borderopacity="0.25"
     inkscape:showpageshadow="2"
     inkscape:pageopacity="0.0"
     inkscape:pagecheckerboard="0"
     inkscape:deskcolor="#d1d1d1"
     inkscape:document-units="mm"
     showgrid="false"
     inkscape:zoom="4.289628"
     inkscape:cx="62.59284"
     inkscape:cy="86.487686"
     inkscape:window-width="1663"
     inkscape:window-height="982"
     inkscape:window-x="7"
     inkscape:window-y="25"
     inkscape:window-maximized="0"
     inkscape:current-layer="layer1" /><defs
     id="defs2"><inkscape:path-effect
       effect="fillet_chamfer"
       id="path-effect1906"
       is_visible="true"
       lpeversion="1"
       nodesatellites_param="F,0,0,1,0,26.458333,0,7 @ F,0,0,1,0,26.458333,0,7 @ F,0,0,1,0,26.458333,0,7 @ F,0,0,1,0,26.458333,0,7"
       unit="px"
       method="auto"
       mode="F"
       radius="100"
       chamfer_steps="7"
       flexible="false"
       use_knot_distance="true"
       apply_no_radius="true"
       apply_with_radius="true"
       only_selected="false"
       hide_knots="false" /><inkscape:path-effect
       effect="fillet_chamfer"
       id="path-effect1852"
       is_visible="true"
       lpeversion="1"
       nodesatellites_param="F,1,0,1,0,26,0,1 @ F,1,0,1,0,26,0,1 @ F,1,0,1,0,26,0,1 @ F,1,0,1,0,26,0,1"
       unit="px"
       method="auto"
       mode="F"
       radius="26"
       chamfer_steps="1"
       flexible="true"
       use_knot_distance="true"
       apply_no_radius="true"
       apply_with_radius="true"
       only_selected="false"
       hide_knots="false" /></defs><g
     inkscape:label="Layer 1"
     inkscape:groupmode="layer"
     id="layer1"
     transform="translate(389.36864,435.93213)"><path
       id="path1447-81"
       style="fill:none;stroke-width:0.0613548;stroke-linejoin:bevel;stroke:#ff0000;stroke-opacity:1"
       d="m -359.45692,-403.52795 a 0.67534192,0.67534192 0 0 1 -0.67535,0.67534 0.67534192,0.67534192 0 0 1 -0.67534,-0.67534 0.67534192,0.67534192 0 0 1 0.67534,-0.67534 0.67534192,0.67534192 0 0 1 0.67535,0.67534 z m -3.0326,0 a 0.67534192,0.67534192 0 0 1 -0.67534,0.67534 0.67534192,0.67534192 0 0 1 -0.67535,-0.67534 0.67534192,0.67534192 0 0 1 0.67535,-0.67534 0.67534192,0.67534192 0 0 1 0.67534,0.67534 z m -3.0326,0 a 0.67534192,0.67534192 0 0 1 -0.67534,0.67534 0.67534192,0.67534192 0 0 1 -0.67535,-0.67534 0.67534192,0.67534192 0 0 1 0.67535,-0.67534 0.67534192,0.67534192 0 0 1 0.67534,0.67534 z m -3.0326,0 a 0.67534192,0.67534192 0 0 1 -0.67534,0.67534 0.67534192,0.67534192 0 0 1 -0.67535,-0.67534 0.67534192,0.67534192 0 0 1 0.67535,-0.67534 0.67534192,0.67534192 0 0 1 0.67534,0.67534 z m -3.0326,0 a 0.67534192,0.67534192 0 0 1 -0.67534,0.67534 0.67534192,0.67534192 0 0 1 -0.67535,-0.67534 0.67534192,0.67534192 0 0 1 0.67535,-0.67534 0.67534192,0.67534192 0 0 1 0.67534,0.67534 z m 13.75293,-2.47244 a 0.67534192,0.67534192 0 0 1 -0.67534,0.67534 0.67534192,0.67534192 0 0 1 -0.67534,-0.67534 0.67534192,0.67534192 0 0 1 0.67534,-0.67534 0.67534192,0.67534192 0 0 1 0.67534,0.67534 z m -3.06119,0 a 0.67534192,0.67534192 0 0 1 -0.67534,0.67534 0.67534192,0.67534192 0 0 1 -0.67534,-0.67534 0.67534192,0.67534192 0 0 1 0.67534,-0.67534 0.67534192,0.67534192 0 0 1 0.67534,0.67534 z m -3.06119,0 a 0.67534192,0.67534192 0 0 1 -0.67534,0.67534 0.67534192,0.67534192 0 0 1 -0.67534,-0.67534 0.67534192,0.67534192 0 0 1 0.67534,-0.67534 0.67534192,0.67534192 0 0 1 0.67534,0.67534 z m -3.06119,0 a 0.67534192,0.67534192 0 0 1 -0.67534,0.67534 0.67534192,0.67534192 0 0 1 -0.67534,-0.67534 0.67534192,0.67534192 0 0 1 0.67534,-0.67534 0.67534192,0.67534192 0 0 1 0.67534,0.67534 z m -3.06119,0 a 0.67534192,0.67534192 0 0 1 -0.67534,0.67534 0.67534192,0.67534192 0 0 1 -0.67534,-0.67534 0.67534192,0.67534192 0 0 1 0.67534,-0.67534 0.67534192,0.67534192 0 0 1 0.67534,0.67534 z m -3.06119,0 a 0.67534192,0.67534192 0 0 1 -0.67534,0.67534 0.67534192,0.67534192 0 0 1 -0.67534,-0.67534 0.67534192,0.67534192 0 0 1 0.67534,-0.67534 0.67534192,0.67534192 0 0 1 0.67534,0.67534 z m 30.70248,-6.43174 a 23.430783,23.430783 0 0 1 -23.39076,23.43074 23.430783,23.430783 0 0 1 -23.47066,-23.35071 23.430783,23.430783 0 0 1 23.31059,-23.51051 23.430783,23.430783 0 0 1 23.55029,23.27041 z" /></g></svg>
